<mxfile host="app.diagrams.net" agent="Mozilla/5.0 (Windows NT 10.0; Win64; x64) AppleWebKit/537.36 (KHTML, like Gecko) Chrome/136.0.0.0 Safari/537.36" version="26.3.0">
  <diagram name="PÃ¡gina-1" id="_JLQ_NPuixk94suW88B-">
    <mxGraphModel dx="1886" dy="1279" grid="0" gridSize="10" guides="1" tooltips="1" connect="1" arrows="1" fold="1" page="0" pageScale="1" pageWidth="827" pageHeight="1169" math="0" shadow="0">
      <root>
        <mxCell id="0" />
        <mxCell id="1" parent="0" />
        <mxCell id="qiwozbOQSMnsMz061JXX-19" value="Publicacion" style="shape=table;startSize=30;container=1;collapsible=1;childLayout=tableLayout;fixedRows=1;rowLines=0;fontStyle=1;align=center;resizeLast=1;html=1;" vertex="1" parent="1">
          <mxGeometry x="-426" y="-714" width="180" height="148.6769830111799" as="geometry" />
        </mxCell>
        <mxCell id="qiwozbOQSMnsMz061JXX-20" value="" style="shape=tableRow;horizontal=0;startSize=0;swimlaneHead=0;swimlaneBody=0;fillColor=none;collapsible=0;dropTarget=0;points=[[0,0.5],[1,0.5]];portConstraint=eastwest;top=0;left=0;right=0;bottom=1;" vertex="1" parent="qiwozbOQSMnsMz061JXX-19">
          <mxGeometry y="30" width="180" height="30" as="geometry" />
        </mxCell>
        <mxCell id="qiwozbOQSMnsMz061JXX-21" value="PK" style="shape=partialRectangle;connectable=0;fillColor=none;top=0;left=0;bottom=0;right=0;fontStyle=1;overflow=hidden;whiteSpace=wrap;html=1;" vertex="1" parent="qiwozbOQSMnsMz061JXX-20">
          <mxGeometry width="28.323936725484998" height="30" as="geometry">
            <mxRectangle width="28.323936725484998" height="30" as="alternateBounds" />
          </mxGeometry>
        </mxCell>
        <mxCell id="qiwozbOQSMnsMz061JXX-22" value="CodigoDePublicacion" style="shape=partialRectangle;connectable=0;fillColor=none;top=0;left=0;bottom=0;right=0;align=left;spacingLeft=6;fontStyle=5;overflow=hidden;whiteSpace=wrap;html=1;" vertex="1" parent="qiwozbOQSMnsMz061JXX-20">
          <mxGeometry x="28.323936725484998" width="151.676063274515" height="30" as="geometry">
            <mxRectangle width="151.676063274515" height="30" as="alternateBounds" />
          </mxGeometry>
        </mxCell>
        <mxCell id="qiwozbOQSMnsMz061JXX-23" value="" style="shape=tableRow;horizontal=0;startSize=0;swimlaneHead=0;swimlaneBody=0;fillColor=none;collapsible=0;dropTarget=0;points=[[0,0.5],[1,0.5]];portConstraint=eastwest;top=0;left=0;right=0;bottom=0;" vertex="1" parent="qiwozbOQSMnsMz061JXX-19">
          <mxGeometry y="60" width="180" height="30" as="geometry" />
        </mxCell>
        <mxCell id="qiwozbOQSMnsMz061JXX-24" value="" style="shape=partialRectangle;connectable=0;fillColor=none;top=0;left=0;bottom=0;right=0;editable=1;overflow=hidden;whiteSpace=wrap;html=1;" vertex="1" parent="qiwozbOQSMnsMz061JXX-23">
          <mxGeometry width="28.323936725484998" height="30" as="geometry">
            <mxRectangle width="28.323936725484998" height="30" as="alternateBounds" />
          </mxGeometry>
        </mxCell>
        <mxCell id="qiwozbOQSMnsMz061JXX-25" value="Anio" style="shape=partialRectangle;connectable=0;fillColor=none;top=0;left=0;bottom=0;right=0;align=left;spacingLeft=6;overflow=hidden;whiteSpace=wrap;html=1;" vertex="1" parent="qiwozbOQSMnsMz061JXX-23">
          <mxGeometry x="28.323936725484998" width="151.676063274515" height="30" as="geometry">
            <mxRectangle width="151.676063274515" height="30" as="alternateBounds" />
          </mxGeometry>
        </mxCell>
        <mxCell id="qiwozbOQSMnsMz061JXX-26" value="" style="shape=tableRow;horizontal=0;startSize=0;swimlaneHead=0;swimlaneBody=0;fillColor=none;collapsible=0;dropTarget=0;points=[[0,0.5],[1,0.5]];portConstraint=eastwest;top=0;left=0;right=0;bottom=0;" vertex="1" parent="qiwozbOQSMnsMz061JXX-19">
          <mxGeometry y="90" width="180" height="27" as="geometry" />
        </mxCell>
        <mxCell id="qiwozbOQSMnsMz061JXX-27" value="" style="shape=partialRectangle;connectable=0;fillColor=none;top=0;left=0;bottom=0;right=0;editable=1;overflow=hidden;whiteSpace=wrap;html=1;" vertex="1" parent="qiwozbOQSMnsMz061JXX-26">
          <mxGeometry width="28.323936725484998" height="27" as="geometry">
            <mxRectangle width="28.323936725484998" height="27" as="alternateBounds" />
          </mxGeometry>
        </mxCell>
        <mxCell id="qiwozbOQSMnsMz061JXX-28" value="Nombre" style="shape=partialRectangle;connectable=0;fillColor=none;top=0;left=0;bottom=0;right=0;align=left;spacingLeft=6;overflow=hidden;whiteSpace=wrap;html=1;" vertex="1" parent="qiwozbOQSMnsMz061JXX-26">
          <mxGeometry x="28.323936725484998" width="151.676063274515" height="27" as="geometry">
            <mxRectangle width="151.676063274515" height="27" as="alternateBounds" />
          </mxGeometry>
        </mxCell>
        <mxCell id="qiwozbOQSMnsMz061JXX-29" value="" style="shape=tableRow;horizontal=0;startSize=0;swimlaneHead=0;swimlaneBody=0;fillColor=none;collapsible=0;dropTarget=0;points=[[0,0.5],[1,0.5]];portConstraint=eastwest;top=0;left=0;right=0;bottom=0;" vertex="1" parent="qiwozbOQSMnsMz061JXX-19">
          <mxGeometry y="117" width="180" height="30" as="geometry" />
        </mxCell>
        <mxCell id="qiwozbOQSMnsMz061JXX-30" value="" style="shape=partialRectangle;connectable=0;fillColor=none;top=0;left=0;bottom=0;right=0;editable=1;overflow=hidden;whiteSpace=wrap;html=1;" vertex="1" parent="qiwozbOQSMnsMz061JXX-29">
          <mxGeometry width="28.323936725484998" height="30" as="geometry">
            <mxRectangle width="28.323936725484998" height="30" as="alternateBounds" />
          </mxGeometry>
        </mxCell>
        <mxCell id="qiwozbOQSMnsMz061JXX-31" value="Resumen" style="shape=partialRectangle;connectable=0;fillColor=none;top=0;left=0;bottom=0;right=0;align=left;spacingLeft=6;overflow=hidden;whiteSpace=wrap;html=1;" vertex="1" parent="qiwozbOQSMnsMz061JXX-29">
          <mxGeometry x="28.323936725484998" width="151.676063274515" height="30" as="geometry">
            <mxRectangle width="151.676063274515" height="30" as="alternateBounds" />
          </mxGeometry>
        </mxCell>
        <mxCell id="qiwozbOQSMnsMz061JXX-59" value="Libro" style="swimlane;fontStyle=0;childLayout=stackLayout;horizontal=1;startSize=26;horizontalStack=0;resizeParent=1;resizeParentMax=0;resizeLast=0;collapsible=1;marginBottom=0;align=center;fontSize=14;" vertex="1" parent="1">
          <mxGeometry x="-455" y="-507" width="160" height="116" as="geometry" />
        </mxCell>
        <mxCell id="qiwozbOQSMnsMz061JXX-60" value="NumeroDePaginas" style="text;strokeColor=none;fillColor=none;spacingLeft=4;spacingRight=4;overflow=hidden;rotatable=0;points=[[0,0.5],[1,0.5]];portConstraint=eastwest;fontSize=12;whiteSpace=wrap;html=1;" vertex="1" parent="qiwozbOQSMnsMz061JXX-59">
          <mxGeometry y="26" width="160" height="30" as="geometry" />
        </mxCell>
        <mxCell id="qiwozbOQSMnsMz061JXX-61" value="Item 2" style="text;strokeColor=none;fillColor=none;spacingLeft=4;spacingRight=4;overflow=hidden;rotatable=0;points=[[0,0.5],[1,0.5]];portConstraint=eastwest;fontSize=12;whiteSpace=wrap;html=1;" vertex="1" parent="qiwozbOQSMnsMz061JXX-59">
          <mxGeometry y="56" width="160" height="30" as="geometry" />
        </mxCell>
        <mxCell id="qiwozbOQSMnsMz061JXX-62" value="Item 3" style="text;strokeColor=none;fillColor=none;spacingLeft=4;spacingRight=4;overflow=hidden;rotatable=0;points=[[0,0.5],[1,0.5]];portConstraint=eastwest;fontSize=12;whiteSpace=wrap;html=1;" vertex="1" parent="qiwozbOQSMnsMz061JXX-59">
          <mxGeometry y="86" width="160" height="30" as="geometry" />
        </mxCell>
      </root>
    </mxGraphModel>
  </diagram>
</mxfile>
